<mxfile host="app.diagrams.net" modified="2024-01-22T06:58:32.729Z" agent="Mozilla/5.0 (Windows NT 10.0; Win64; x64) AppleWebKit/537.36 (KHTML, like Gecko) Chrome/120.0.0.0 Safari/537.36" version="22.1.18" etag="KFM1O4d8dH_6ox9j0TQx" type="github">
  <diagram name="Page-1" id="kfioK9MFzWgIW0w1Ot__">
    <mxGraphModel>
      <root>
        <mxCell id="0" />
        <mxCell id="1" parent="0" />
      </root>
    </mxGraphModel>
  </diagram>
</mxfile>
